<svg width="220" height="40" viewBox="0 0 220 40" fill="none" xmlns="http://www.w3.org/2000/svg">
  <path d="M 23.65 6.42 L 23.58 6.48 L 23.58 6.74 L 23.45 6.87 L 23.19 7.72 L 22.87 8.38 L 22.73 8.51 L 22.73 8.64 L 22.21 9.29 L 22.15 9.49 L 21.76 10.07 L 20.25 11.97 L 19.80 12.42 L 19.47 12.88 L 19.34 12.95 L 19.34 13.01 L 18.62 13.73 L 18.62 13.80 L 17.44 14.97 L 17.44 15.04 L 17.31 15.10 L 17.31 15.17 L 17.18 15.23 L 17.18 15.30 L 17.05 15.36 L 16.99 15.49 L 16.86 15.56 L 16.86 15.62 L 16.73 15.69 L 16.73 15.76 L 16.60 15.82 L 16.60 15.89 L 16.40 16.02 L 16.40 16.08 L 16.27 16.15 L 16.27 16.21 L 16.07 16.34 L 15.29 17.13 L 15.22 17.26 L 14.70 17.65 L 14.70 17.71 L 14.57 17.78 L 14.11 18.30 L 13.59 18.69 L 13.53 18.82 L 12.87 19.35 L 12.81 19.48 L 12.42 19.74 L 12.42 19.80 L 12.02 20.13 L 12.02 20.20 L 11.44 20.85 L 11.37 21.04 L 11.11 21.37 L 10.72 22.16 L 10.72 22.29 L 10.39 22.81 L 10.39 22.94 L 10.26 23.20 L 10.26 23.40 L 10.20 23.46 L 10.13 23.92 L 10.07 23.98 L 10.07 24.31 L 10.00 24.38 L 10.20 24.64 L 10.39 24.64 L 10.59 24.51 L 11.11 23.33 L 11.89 22.22 L 12.02 22.16 L 12.35 21.70 L 12.48 21.63 L 12.48 21.57 L 12.61 21.50 L 12.94 21.18 L 12.94 21.11 L 13.66 20.46 L 13.92 20.33 L 13.92 20.26 L 14.31 20.00 L 14.38 19.87 L 14.64 19.74 L 15.62 18.96 L 16.47 18.43 L 17.25 17.84 L 17.38 17.84 L 18.75 16.87 L 19.08 16.73 L 19.53 16.41 L 19.60 16.28 L 20.71 15.56 L 21.36 14.97 L 21.62 14.84 L 21.62 14.78 L 21.76 14.71 L 22.47 13.93 L 22.54 13.93 L 22.80 13.53 L 22.93 13.47 L 23.26 12.88 L 23.52 12.62 L 23.91 11.84 L 23.91 11.71 L 24.17 11.12 L 24.17 10.92 L 24.30 10.60 L 24.30 10.27 L 24.37 10.20 L 24.37 8.64 L 24.30 8.57 L 24.30 8.18 L 24.24 8.11 L 24.24 7.92 L 24.17 7.85 L 24.17 7.66 L 24.11 7.59 L 24.04 7.27 L 23.91 7.07 L 23.84 6.74 Z" fill="#ff751f" />
  <path d="M 25.67 4.00 L 25.48 4.20 L 25.48 4.46 L 26.13 5.37 L 26.65 6.61 L 26.78 6.68 L 26.72 6.74 L 27.04 7.46 L 27.24 8.51 L 27.24 10.20 L 26.91 11.77 L 26.00 13.60 L 24.89 14.97 L 22.80 16.87 L 19.93 18.89 L 19.40 19.15 L 17.84 20.26 L 17.71 20.26 L 15.75 21.76 L 14.05 23.59 L 13.40 24.77 L 13.07 25.75 L 12.94 27.18 L 13.13 28.42 L 13.53 29.34 L 14.57 30.84 L 16.01 32.34 L 17.12 33.26 L 18.42 34.11 L 19.99 34.82 L 20.12 33.26 L 20.25 33.13 L 20.19 32.87 L 20.32 32.73 L 20.58 31.62 L 21.10 30.38 L 22.08 28.82 L 23.98 26.66 L 25.22 25.55 L 26.72 24.38 L 29.27 22.68 L 30.44 21.63 L 31.36 20.52 L 32.14 19.35 L 32.53 18.43 L 32.92 17.00 L 32.99 14.78 L 32.79 13.67 L 32.27 12.23 L 31.22 10.60 Z" fill="#ff751f" />
  <path d="M 39.71 20.72 L 39.52 20.52 L 39.39 20.52 L 38.87 20.78 L 38.21 20.98 L 37.95 21.18 L 36.97 21.50 L 36.84 21.63 L 36.71 21.63 L 36.51 21.76 L 36.38 21.76 L 36.25 21.89 L 35.80 22.02 L 35.67 22.16 L 35.53 22.16 L 35.14 22.42 L 34.69 22.55 L 34.49 22.74 L 33.90 22.94 L 33.71 23.13 L 33.58 23.13 L 33.44 23.27 L 33.31 23.27 L 32.47 23.79 L 32.33 23.79 L 31.55 24.31 L 31.42 24.31 L 31.22 24.51 L 30.90 24.64 L 30.18 25.16 L 29.85 25.29 L 27.50 27.05 L 27.50 27.12 L 26.65 27.84 L 25.48 29.08 L 24.50 30.38 L 24.11 31.10 L 24.11 31.23 L 23.71 32.02 L 23.58 32.54 L 23.45 32.67 L 23.45 32.93 L 23.39 33.00 L 23.32 33.58 L 23.26 33.65 L 23.26 34.04 L 23.32 34.11 L 23.39 34.50 L 23.78 35.02 L 24.37 35.48 L 24.63 35.54 L 24.76 35.67 L 24.96 35.67 L 25.15 35.80 L 25.67 35.87 L 25.74 35.93 L 28.55 35.87 L 28.61 35.80 L 28.94 35.80 L 29.33 35.67 L 29.79 35.67 L 30.44 35.48 L 30.77 35.48 L 31.09 35.35 L 31.36 35.35 L 31.88 35.15 L 32.20 35.15 L 32.66 34.96 L 32.92 34.96 L 33.12 34.82 L 33.51 34.76 L 33.71 34.63 L 34.82 34.24 L 34.95 34.11 L 35.08 34.11 L 35.60 33.84 L 35.73 33.71 L 35.86 33.71 L 36.25 33.39 L 36.51 33.32 L 37.30 32.67 L 37.89 32.28 L 39.00 31.17 L 39.00 31.10 L 39.13 31.04 L 39.98 29.93 L 40.11 29.60 L 40.24 29.47 L 40.24 29.34 L 40.56 28.82 L 40.63 28.56 L 40.89 28.16 L 40.89 27.97 L 41.02 27.71 L 41.15 26.92 L 41.22 26.86 L 41.22 26.47 L 41.28 26.40 L 41.28 24.57 L 41.22 24.51 L 41.09 23.53 L 40.82 22.74 L 40.69 22.61 L 40.76 22.55 L 40.63 22.42 L 40.24 21.57 Z" fill="#ff751f" />
  <text x="48" y="28" font-family="'Inter', 'Montserrat', 'Outfit', sans-serif" font-weight="700" font-size="19" fill="#FFFFFF" letter-spacing="5">CANDELS</text>
</svg>
